<svg width="105" height="105" viewBox="0 0 105 105" fill="none" xmlns="http://www.w3.org/2000/svg">
<path d="M91.875 80.9375C91.875 86.9794 86.9794 91.875 80.9375 91.875H24.0625C18.0228 91.875 13.125 86.9794 13.125 80.9375V24.0625C13.125 18.0206 18.0228 13.125 24.0625 13.125H80.9375C86.9794 13.125 91.875 18.0206 91.875 24.0625V80.9375Z" fill="#3F51B5"/>
<path d="M75.18 54.6875H67.8125V83.125H56.875V54.6875H50.3125V45.9375H56.875V40.6656C56.8794 32.9919 60.0666 28.4375 69.1075 28.4375H76.5625V37.1875H71.5597C68.04 37.1875 67.8125 38.5 67.8125 40.9566V45.9375H76.5625L75.18 54.6875Z" fill="white"/>
</svg>
