<svg width="105" height="105" viewBox="0 0 105 105" fill="none" xmlns="http://www.w3.org/2000/svg">
<path d="M96.25 52.5C96.25 76.6609 76.6609 96.25 52.5 96.25C28.3391 96.25 8.75 76.6609 8.75 52.5C8.75 28.3391 28.3391 8.75 52.5 8.75C76.6609 8.75 96.25 28.3391 96.25 52.5Z" fill="url(#paint0_linear_227_69)"/>
<path opacity="0.05" d="M22.1352 51.3318C39.9743 43.249 60.9262 34.4793 64.1527 33.2106C71.2665 30.4128 74.3684 33.2718 73.8827 37.8328C73.2856 43.4218 70.4549 59.6859 68.7137 71.3387C67.6943 78.1572 64.0018 80.2462 59.8346 77.6015C56.6737 75.5956 45.8062 68.4797 42.9471 66.0472C40.998 64.389 39.6396 62.5297 41.0221 60.6353C41.4268 60.0818 42.4615 58.9662 43.0368 58.4106C45.9221 55.615 45.5327 55.0134 42.0437 57.5093C41.628 57.8068 39.2174 59.5547 38.2265 60.2153C35.7984 61.834 33.5649 61.9215 29.7784 60.6353C26.6809 59.5831 23.7059 58.7715 21.829 57.96C19.2368 56.8378 18.2437 53.095 22.1352 51.3318Z" fill="black"/>
<path opacity="0.07" d="M23.7038 51.6054C40.2675 44.2007 60.6375 35.7154 63.6169 34.5145C70.7569 31.6313 73.3841 33.342 72.6163 38.9135C71.9031 44.0716 69.3722 60.0316 67.5981 70.7307C66.5525 77.0285 63.4988 78.4154 59.5219 75.8429C57.0303 74.2373 47.0028 67.631 44.5703 65.7082C42.6891 64.2229 40.74 62.5079 43.0172 60.0251C43.7785 59.196 47.9828 55.1382 51.1263 52.1195C52.9485 50.3673 52.2988 49.5032 50.1003 51.0082C46.0688 53.771 39.4735 58.1438 38.2966 58.9379C36.0544 60.4473 33.9478 60.8104 30.2816 59.6576C27.3919 58.7476 24.6006 57.866 23.146 57.2995C19.8953 56.0395 19.8516 53.327 23.7038 51.6054Z" fill="black"/>
<path d="M25.2724 51.881C40.563 45.1544 60.349 36.9535 63.0811 35.8182C70.2452 32.8476 72.4436 33.4163 71.3477 39.9963C70.5602 44.7257 68.2896 60.3816 66.4783 70.1269C65.4043 75.9063 62.9936 76.591 59.2049 74.0907C57.3827 72.8876 48.1843 66.8041 46.1871 65.3757C44.3649 64.0741 41.8515 62.5079 45.0036 59.4235C46.1258 58.3254 53.478 51.3035 59.2071 45.8391C59.9574 45.1216 59.0146 43.9426 58.1483 44.5179C50.4265 49.6388 39.7208 56.746 38.358 57.6713C36.2996 59.0691 34.3221 59.7101 30.774 58.6907C28.0921 57.9207 25.4736 57.002 24.4543 56.652C20.5277 55.3045 21.4596 53.5588 25.2724 51.881Z" fill="white"/>
<defs>
<linearGradient id="paint0_linear_227_69" x1="21.5644" y1="21.5644" x2="83.4356" y2="83.4356" gradientUnits="userSpaceOnUse">
<stop stop-color="#33BEF0"/>
<stop offset="1" stop-color="#0A85D9"/>
</linearGradient>
</defs>
</svg>
