<svg width="105" height="105" viewBox="0 0 105 105" fill="none" xmlns="http://www.w3.org/2000/svg">
<path d="M52.5 10.9375C46.7272 10.9375 29.1594 10.9375 19.4469 19.8056C13.6631 25.5675 10.9375 33.8931 10.9375 45.9375V52.5C10.9375 64.5444 13.6631 72.87 19.5147 78.6975C22.4284 81.3553 26.4009 83.4794 31.2572 84.9472L32.8125 85.4153V97.0703C32.8125 98.4375 33.2084 98.4375 33.3397 98.4375C33.6088 98.4375 34.0397 98.3522 34.8578 97.6259C35.0547 97.4313 36.4984 95.8694 43.5203 88.0031L44.2291 87.2091L45.29 87.2769C47.6416 87.4234 50.0675 87.5 52.5 87.5C58.2728 87.5 75.8406 87.5 85.5531 78.6297C91.3347 72.8678 94.0625 64.5422 94.0625 52.5V45.9375C94.0625 33.8931 91.3369 25.5675 85.4853 19.74C75.8406 10.9375 58.2728 10.9375 52.5 10.9375Z" fill="white"/>
<path d="M73.1742 63.1181C70.7439 61.0706 69.6217 60.4516 66.2661 58.4369C64.8683 57.5991 62.7377 56.875 61.6198 56.875C60.8564 56.875 59.942 57.4591 59.382 58.0191C57.947 59.4541 57.4767 61.25 54.9611 61.25C52.5002 61.25 48.2017 58.7453 45.1173 55.5078C41.8798 52.4234 39.3752 48.125 39.3752 45.6641C39.3752 43.1484 41.1383 42.6453 42.5733 41.2081C43.1333 40.6503 43.7502 39.7359 43.7502 38.9725C43.7502 37.8547 43.0261 35.7569 42.1883 34.3591C40.1736 31.0012 39.5567 29.8791 37.507 27.4509C36.8136 26.6284 36.0239 26.2522 35.197 26.25C33.7992 26.2478 31.9639 26.9413 30.7214 27.8666C28.8533 29.26 26.8998 31.1566 26.377 33.5191C26.307 33.8406 26.2655 34.1644 26.2523 34.4881C26.1517 36.9491 27.1186 39.4472 28.162 41.5625C30.6186 46.5478 33.8692 51.3734 37.4064 55.6828C38.5373 57.0609 39.7689 58.3428 41.0442 59.5809C42.2823 60.8541 43.5642 62.0856 44.9423 63.2188C49.2517 66.7559 54.0773 70.0066 59.0627 72.4631C61.1583 73.4956 63.6258 74.445 66.0627 74.375C66.4105 74.3641 66.7583 74.3247 67.1061 74.2481C69.4686 73.7275 71.3652 71.7719 72.7586 69.9037C73.6839 68.6612 74.3773 66.8281 74.3752 65.4281C74.373 64.6012 73.9967 63.8116 73.1742 63.1181ZM74.3752 52.5C73.1677 52.5 72.1877 51.52 72.1877 50.3125V48.125C72.1877 37.2706 63.3545 28.4375 52.5002 28.4375C51.2927 28.4375 50.3127 27.4575 50.3127 26.25C50.3127 25.0425 51.2927 24.0625 52.5002 24.0625C65.7673 24.0625 76.5627 34.8578 76.5627 48.125V50.3125C76.5627 51.52 75.5827 52.5 74.3752 52.5ZM60.9395 48.125C59.9683 48.125 59.0802 47.4731 58.8242 46.4888C58.2248 44.1897 56.4311 42.3938 54.1408 41.8031C52.9705 41.4991 52.2683 40.3069 52.5702 39.1366C52.872 37.9684 54.062 37.2663 55.2367 37.5659C59.0605 38.5569 62.0573 41.5516 63.057 45.3841C63.3611 46.5544 62.6611 47.7466 61.493 48.0528C61.307 48.1009 61.1211 48.125 60.9395 48.125Z" fill="#7E57C2"/>
<path d="M67.8124 50.3123C66.6049 50.3123 65.6249 49.3323 65.6249 48.1248C65.6249 41.151 60.1693 35.3979 53.2043 35.0304C51.9968 34.967 51.0715 33.9367 51.1349 32.7313C51.1983 31.5238 52.2462 30.5963 53.434 30.662C62.7243 31.152 69.9999 38.8235 69.9999 48.1248C69.9999 49.3323 69.0199 50.3123 67.8124 50.3123Z" fill="#7E57C2"/>
<path d="M52.5001 8.75C42.6564 8.75 27.3176 9.65563 17.9726 18.1912C11.3664 24.7691 8.75012 33.9959 8.75012 45.9375C8.75012 46.9263 8.74574 48.0288 8.75449 49.2188C8.74574 50.4066 8.75012 51.5091 8.75012 52.4978C8.75012 64.4394 11.3664 73.6662 17.9726 80.2441C21.5295 83.4925 25.9657 85.6297 30.6251 87.0384V97.0703C30.6251 100.562 32.9198 100.625 33.3398 100.625H33.3595C34.4401 100.621 35.3742 100.091 36.3104 99.26C36.6626 98.9472 40.7292 94.4147 45.1523 89.4578C47.7861 89.6263 50.2886 89.6875 52.4979 89.6875C62.3417 89.6875 77.6782 88.7797 87.0254 80.2441C93.6295 73.6684 96.2479 64.4394 96.2479 52.4978C96.2479 51.5091 96.2523 50.4066 96.2436 49.2166C96.2523 48.0266 96.2479 46.9263 96.2479 45.9353C96.2479 33.9938 93.6317 24.7669 87.0254 18.1891C77.6804 9.65562 62.3439 8.75 52.5001 8.75ZM89.6876 51.7366V52.4978C89.6876 63.2297 87.4017 70.5425 82.4995 75.4928C74.0076 83.125 57.8311 83.125 52.4979 83.125C50.8748 83.125 48.2411 83.1228 45.1326 82.9062C44.2686 83.8775 35.0001 94.2441 35.0001 94.2441V81.4188C30.3976 80.3141 25.8498 78.5028 22.5007 75.495C17.5986 70.5425 15.3126 63.2297 15.3126 52.4978V51.7366C15.3126 50.9687 15.3104 50.1397 15.317 49.1706C15.3104 48.2956 15.3104 47.4688 15.3126 46.6987V45.9375C15.3126 35.2056 17.5986 27.8928 22.5007 22.9425C30.9904 15.3103 47.1692 15.3103 52.5001 15.3103C57.8311 15.3103 74.0076 15.3103 82.4973 22.9425C87.4017 27.8928 89.6854 35.2056 89.6854 45.9375V46.6987C89.6854 47.4666 89.6876 48.2956 89.6811 49.2647C89.6876 50.1419 89.6876 50.9687 89.6876 51.7366Z" fill="#7E57C2"/>
</svg>
