<svg width="105" height="105" viewBox="0 0 105 105" fill="none" xmlns="http://www.w3.org/2000/svg">
<path fill-rule="evenodd" clip-rule="evenodd" d="M10.6489 94.7253L16.5421 73.2112C12.9064 66.9156 10.9946 59.7713 10.9967 52.4541C11.0077 29.5619 29.6364 10.9375 52.5308 10.9375C63.6411 10.9419 74.0667 15.2666 81.9089 23.1131C89.7489 30.9619 94.067 41.3919 94.0627 52.4869C94.0539 75.3791 75.4208 94.0056 52.5308 94.0056C52.5286 94.0056 52.5308 94.0056 52.5308 94.0056H52.5133C45.5636 94.0034 38.732 92.26 32.6661 88.9503L10.6489 94.7253Z" fill="white"/>
<path fill-rule="evenodd" clip-rule="evenodd" d="M10.6489 95.8191C10.3602 95.8191 10.0802 95.7053 9.87238 95.4953C9.59895 95.2175 9.49176 94.8128 9.59457 94.4388L15.3674 73.36C11.7886 67.0031 9.90082 59.7844 9.9052 52.4562C9.91395 28.9581 29.0349 9.84375 52.5308 9.84375C63.9277 9.84813 74.6355 14.2866 82.6833 22.3409C90.7311 30.3975 95.1608 41.1031 95.1564 52.4869C95.1477 75.9828 76.0246 95.0994 52.5308 95.0994C45.5549 95.0972 38.6533 93.3756 32.5283 90.1184L10.9268 95.7819C10.8349 95.8081 10.743 95.8191 10.6489 95.8191Z" fill="white"/>
<path fill-rule="evenodd" clip-rule="evenodd" d="M52.5307 10.9375C63.641 10.9419 74.0667 15.2666 81.9089 23.1131C89.7488 30.9619 94.067 41.3919 94.0626 52.4869C94.0538 75.3791 75.4207 94.0056 52.5307 94.0056H52.5132C45.5635 94.0034 38.732 92.26 32.666 88.9503L10.6488 94.7253L16.542 73.2113C12.9063 66.9156 10.9945 59.7713 10.9967 52.4541C11.0076 29.5619 29.6364 10.9375 52.5307 10.9375ZM52.5307 8.75C28.4332 8.75 8.8201 28.3544 8.80916 52.4541C8.80697 59.8194 10.6663 67.0775 14.1926 73.5022L8.53791 94.15C8.33229 94.9047 8.54229 95.7097 9.09354 96.2653C9.50916 96.6853 10.0713 96.915 10.6488 96.915C10.8348 96.915 11.0207 96.8909 11.2045 96.8428L32.3948 91.2866C38.581 94.4978 45.5154 96.1931 52.5132 96.1953C76.6282 96.1953 96.2413 76.5888 96.2523 52.4891C96.2567 40.81 91.7132 29.8287 83.4598 21.5687C75.202 13.3066 64.2185 8.75438 52.5307 8.75Z" fill="#CFD8DC"/>
<path fill-rule="evenodd" clip-rule="evenodd" d="M76.9473 28.0701C70.4286 21.5469 61.7639 17.9529 52.5414 17.9507C33.5014 17.9507 18.0161 33.4294 18.0073 52.4563C18.0051 58.9772 19.8295 65.3254 23.2858 70.8226L24.1083 72.1285L20.6192 84.8619L33.6851 81.4363L34.9473 82.1844C40.2454 85.3301 46.3223 86.9926 52.5173 86.9947H52.5304C71.5573 86.9947 87.0426 71.5138 87.0492 52.4847C87.0514 43.2644 83.4661 34.5932 76.9473 28.0701Z" fill="#40C351"/>
<path fill-rule="evenodd" clip-rule="evenodd" d="M42.1487 35.0986C41.3721 33.3705 40.554 33.3355 39.8124 33.3049C39.2065 33.2786 38.5152 33.2808 37.824 33.2808C37.1327 33.2808 36.0083 33.5411 35.0568 34.5802C34.1052 35.6192 31.4233 38.1283 31.4233 43.2339C31.4233 48.3396 35.1421 53.2746 35.6605 53.9658C36.179 54.6571 42.8399 65.4699 53.388 69.6305C62.1533 73.0867 63.9383 72.3999 65.8415 72.2271C67.7446 72.0542 71.9818 69.718 72.8458 67.2942C73.7099 64.8705 73.7099 62.7946 73.4518 62.3614C73.1915 61.9283 72.5002 61.6702 71.4633 61.1496C70.4265 60.6289 65.323 58.1199 64.3715 57.7742C63.4199 57.4286 62.7287 57.2558 62.0352 58.2949C61.344 59.3317 59.3555 61.6702 58.7496 62.3614C58.1437 63.0549 57.5377 63.1424 56.5008 62.6217C55.464 62.1011 52.1215 61.0074 48.1555 57.4724C45.0712 54.7227 42.9887 51.3255 42.3827 50.2864C41.7768 49.2496 42.3171 48.6874 42.8377 48.1689C43.3037 47.703 43.8746 46.9571 44.3952 46.3511C44.9137 45.7452 45.0865 45.3121 45.4321 44.6208C45.7777 43.9274 45.6049 43.3214 45.3446 42.803C45.0887 42.2824 43.0718 37.1505 42.1487 35.0986Z" fill="white"/>
</svg>
